<?xml version="1.0" encoding="UTF-8" standalone="no"?>
<!-- Created with Inkscape (http://www.inkscape.org/) -->

<svg
   width="70.629997"
   height="64.727997"
   viewBox="0 0 18.687526 17.125959"
   version="1.1"
   id="svg1"
   xml:space="preserve"
   inkscape:version="1.4.2 (f4327f4, 2025-05-13)"
   sodipodi:docname="dibujo.svg"
   xmlns:inkscape="http://www.inkscape.org/namespaces/inkscape"
   xmlns:sodipodi="http://sodipodi.sourceforge.net/DTD/sodipodi-0.dtd"
   xmlns="http://www.w3.org/2000/svg"
   xmlns:svg="http://www.w3.org/2000/svg"><sodipodi:namedview
     id="namedview1"
     pagecolor="#ffffff"
     bordercolor="#000000"
     borderopacity="0.25"
     inkscape:showpageshadow="2"
     inkscape:pageopacity="0.0"
     inkscape:pagecheckerboard="0"
     inkscape:deskcolor="#d1d1d1"
     inkscape:document-units="mm"
     inkscape:zoom="7.9999999"
     inkscape:cx="14.375"
     inkscape:cy="41.062501"
     inkscape:window-width="1920"
     inkscape:window-height="1017"
     inkscape:window-x="-8"
     inkscape:window-y="-8"
     inkscape:window-maximized="1"
     inkscape:current-layer="g1" /><defs
     id="defs1" /><g
     inkscape:label="Capa 1"
     inkscape:groupmode="layer"
     id="layer1"><g
       id="g1"
       transform="translate(-2.7482515,-5.0120933)"><path
         style="fill:#72767d;fill-opacity:1;stroke-width:0.069211"
         d="M 2.8656268,7.5285497 C 2.8393998,7.5130627 2.8043298,7.4802497 2.7879298,7.4557827 2.7458158,7.3930247 2.7348848,7.2424589 2.7665088,7.1595078 2.8190818,7.0213338 2.7180368,7.0284395 4.5186199,7.036218 6.318244,7.044018 6.3826488,6.964787 6.3328069,7.099397 6.335435,7.0534739 6.2289828,7.4824977 6.2167146,7.54032 6.139064,7.5834555 2.9396646,7.5720943 2.865626,7.5285032 Z"
         id="path18"
         sodipodi:nodetypes="cscccccc" /><path
         style="fill:#72767d;fill-opacity:1;stroke-width:0.0743121"
         d="m 3.5104205,11.581417 c -0.1652979,-0.01865 -0.1898258,-0.03665 -0.2285514,-0.166908 -0.028278,-0.09497 -0.029074,-0.217009 -0.00274,-0.313808 0.045952,-0.165252 -0.041991,-0.157933 1.6216923,-0.134878 1.2040341,0.01636 1.5041338,0.01511 1.5180084,0.05109 0.025235,0.06541 0.077034,0.187437 0.1250236,0.288799 0.092647,0.164618 0.1534994,0.255113 0.1707522,0.278644 0.036912,0.0502 -2.8980082,0.03167 -3.204781,-0.0029 z"
         id="path17"
         sodipodi:nodetypes="csccscscc" /><path
         style="fill:#72767d;fill-opacity:1;stroke-width:0.0846341;stroke-dasharray:none"
         d="m 3.692715,15.21891 c -0.6566983,-0.108488 -0.515049,-0.461658 0.2198585,-0.548195 0.2308158,-0.02718 1.9364302,-0.05194 8.0088495,-0.11613 7.434517,-0.07865 7.723275,-0.08001 7.926739,-0.03736 0.408314,0.08557 0.538413,0.25896 0.304073,0.405339 -0.252161,0.157546 0.203995,0.144428 -8.409165,0.241838 -6.7898106,0.07679 -7.8714767,0.08412 -8.0503442,0.05457 z"
         id="path16" /><path
         style="fill:#72767d;fill-opacity:1;stroke-width:0.19248"
         d="m 3.6466515,19.891823 c -0.2951848,-0.0777 -0.4381535,-0.23241 -0.3808907,-0.412224 0.051483,-0.161495 0.2259563,-0.263325 0.5712967,-0.333208 0.3758411,-0.07608 15.4754025,-0.266266 15.8537165,-0.199934 0.491954,0.08658 0.707569,0.382702 0.43169,0.592932 -0.292986,0.223262 0.337111,-0.01706 -8.303909,0.09305 -7.5432863,0.09614 -7.9484456,0.3182 -8.1718849,0.259228 z"
         id="path15"
         sodipodi:nodetypes="ccscsscc" /><path
         style="fill:#72767d;fill-opacity:1;stroke-width:0.178454"
         d="M 3.6846824,17.45486 C 3.3895903,17.388472 3.2467999,17.25559 3.3042685,17.100966 3.3559356,16.962079 3.5305246,16.87435 3.8759321,16.813885 4.2518674,16.748117 19.351505,16.567251 19.729739,16.62385 c 0.49185,0.07388 0.707125,0.328166 0.431006,0.509178 -0.29325,0.192252 0.244572,0.174408 -8.396482,0.279011 -7.5433263,0.09132 -7.8561916,0.09318 -8.0795615,0.04271 z"
         id="path15-4" /><path
         style="fill:#72767d;fill-opacity:1;stroke-width:0.175563"
         d="M 3.7658432,22.110632 C 3.1187201,21.968464 3.213282,21.597449 3.9273626,21.4771 4.0815249,21.45104 5.2557922,21.42755 8.1875181,21.39179 l 4.0473189,-0.04977 0.256636,0.102507 c 0.209882,0.08379 0.255516,0.124576 0.250287,0.223772 -0.0069,0.146501 -0.130356,0.236074 -0.429283,0.313547 -0.214792,0.05565 -0.397178,0.06056 -4.2864811,0.115331 -3.6214243,0.051 -4.0836678,0.05247 -4.2602507,0.0137 z"
         id="path14" /><path
         style="fill:#5381c4;fill-opacity:1;stroke-width:0.14085"
         d="m 16.035462,12.645462 c -0.08657,-0.0829 -0.05345,-0.226461 0.08692,-0.378113 l 0.136618,-0.1475 -4.265769,0.104089 -4.2657636,0.104089 -0.219647,-0.08321 C 7.2287607,12.139056 6.8349885,11.789102 6.6364669,11.470263 6.2564481,10.859967 6.0525146,9.7440867 6.1018073,8.5447339 6.1359348,7.7156475 6.28541,7.0657345 6.5470716,6.6095415 6.7216113,6.3052454 7.1064797,5.9387286 7.3701456,5.8257707 l 0.2158909,-0.092567 4.2662975,-0.078859 4.266308,-0.078958 -0.14282,-0.1415079 C 15.767651,5.2276426 15.78595,5.0169661 16.012372,5.012116 c 0.07018,-0.00151 0.172264,0.072195 0.380518,0.2749004 l 0.284562,0.2769643 0.819007,-0.049093 c 1.230198,-0.073554 1.74761,-0.07438 2.012769,-0.00334 0.537545,0.1441631 0.970371,0.4832282 1.386239,1.0859407 0.385193,0.5582614 0.47034,0.920938 0.497717,2.1198843 0.0274,1.236549 -0.04238,1.6057593 -0.420656,2.2017103 -0.353365,0.556586 -0.740552,0.90493 -1.197301,1.077168 -0.339565,0.128067 -0.643033,0.149189 -1.812528,0.126291 l -1.12967,-0.02218 -0.28181,0.292454 c -0.285429,0.296171 -0.407872,0.356183 -0.515852,0.252721 z m 3.626828,-1.024915 c 0.403036,-0.16739 0.760255,-0.515279 1.053682,-1.026153 0.251766,-0.438391 0.319072,-0.8565956 0.297764,-1.8502847 C 20.992406,7.7504206 20.907324,7.3354717 20.636913,6.9082967 20.321794,6.4103645 19.950059,6.0782105 19.539989,5.9281658 19.385942,5.8717227 18.966968,5.8753458 13.688901,5.9779713 10.384773,6.0418683 7.910894,6.1048822 7.7820557,6.1276555 7.4828042,6.1801021 7.3324112,6.2611236 7.1252483,6.4819334 6.6873074,6.9487271 6.4577181,7.8689636 6.4831626,9.0554452 c 0.025533,1.1914008 0.2899778,2.0805408 0.7569403,2.5452808 0.2067883,0.205797 0.3731996,0.28851 0.6514473,0.323808 0.1103682,0.014 2.7672178,-0.0336 5.9041958,-0.10565 5.295842,-0.121572 5.71523,-0.135895 5.866541,-0.19873 z m -12.0360944,0.0095 c -0.02231,-0.02568 -0.096772,-0.19205 -0.1652857,-0.369637 -0.1366347,-0.353735 -0.2192607,-0.439813 -0.3864025,-0.402636 -0.073669,0.01641 -0.1301594,0.0031 -0.1818321,-0.04112 -0.1707245,-0.147959 -0.035181,-0.352444 0.2374606,-0.358291 0.3425889,-0.0078 0.5068033,0.150084 0.6984133,0.669505 0.1101139,0.29869 0.1263324,0.376761 0.093701,0.452681 -0.043963,0.102462 -0.2240741,0.132594 -0.2960352,0.04952 z m 11.5997874,-0.27415 c -0.104105,-0.110264 -0.05367,-0.253881 0.114149,-0.324905 0.341044,-0.14434 0.448039,-0.265069 0.571779,-0.645192 0.04283,-0.131495 0.09849,-0.265024 0.123629,-0.296719 0.06335,-0.07961 0.198204,-0.07513 0.278014,0.0092 0.06295,0.06659 0.06347,0.08249 0.0084,0.287592 -0.119535,0.446741 -0.350841,0.76623 -0.67984,0.939095 -0.226237,0.118842 -0.32609,0.126258 -0.416232,0.03079 z m -2.996867,-0.01561 c -0.500284,-0.04722 -0.933435,-0.104647 -0.962566,-0.12779 -0.0782,-0.06227 -0.176937,-4.6218792 -0.101304,-4.6872993 0.02771,-0.024027 0.505524,-0.1044635 1.061993,-0.1790923 l 1.011786,-0.135581 0.154528,0.1019008 c 0.334412,0.2204053 0.671783,0.7944981 0.823901,1.4020457 0.102555,0.4094055 0.145236,1.4836328 0.07753,1.9499716 -0.103905,0.7158735 -0.395703,1.3451775 -0.757665,1.6340455 -0.196873,0.157133 -0.113181,0.154449 -1.308041,0.0418 z m 1.196182,-0.478399 C 17.695632,10.534731 17.869587,10.036254 17.932802,9.4075758 18.041197,8.3294243 17.797372,7.2809213 17.317709,6.763273 L 17.177982,6.6124595 16.41933,6.7133614 c -0.41727,0.05541 -0.792132,0.1044754 -0.833046,0.1090898 -0.07333,0.00861 -0.07371,0.035304 -0.03085,2.0375902 l 0.04345,2.0294026 0.69097,0.06455 c 1.021024,0.09557 0.977253,0.09911 1.135353,-0.09228 z m -3.311482,0.300875 c -0.599248,-0.09391 -1.688685,-0.152708 -2.773609,-0.149926 l -1.167509,0.0025 -0.0594,-0.08642 c -0.05355,-0.07797 -0.05377,-0.09527 -0.0035,-0.175938 0.05241,-0.08383 0.08594,-0.0917 0.532767,-0.124946 0.735198,-0.05471 2.111182,-0.006 3.275725,0.115832 0.624235,0.06531 0.722643,0.09289 0.755175,0.211626 0.01464,0.05338 0.01108,0.124133 -0.0094,0.157272 -0.04272,0.07145 -0.276165,0.09246 -0.550407,0.04941 z M 8.8086347,11.089043 C 8.4489282,11.037081 8.1177113,10.82461 7.9687353,10.550317 7.7187567,10.090055 7.6382285,8.3941662 7.8339091,7.7104748 7.9901639,7.1644998 8.4415887,6.8890826 9.2070901,6.8726578 9.5353866,6.865977 9.601124,6.9645413 9.699565,7.614189 c 0.060678,0.4009176 0.1024329,2.3414711 0.058919,2.743889 -0.072991,0.67465 -0.1272698,0.756957 -0.5006899,0.758487 -0.1383556,0.001 -0.3404787,-0.01192 -0.4491299,-0.02754 z M 9.3748924,10.180656 C 9.429593,9.421645 9.3547163,7.6353371 9.2558985,7.3422747 9.2351953,7.2807419 9.2026514,7.2755074 8.9667396,7.2958355 8.8110468,7.3096081 8.6278261,7.3531064 8.5243293,7.4016437 8.3732538,7.4725803 8.3349411,7.5140347 8.2598482,7.6877839 8.1451233,7.9532602 8.1095768,8.3087825 8.1247249,9.0391931 c 0.014735,0.7013629 0.064427,1.0434279 0.1902033,1.3031699 0.1151669,0.237837 0.3149783,0.341238 0.7116313,0.368127 0.2302854,0.01562 0.2729042,0.0091 0.293579,-0.04419 0.013219,-0.03442 0.037835,-0.252897 0.054633,-0.485762 z M 19.977291,7.4406636 C 19.949933,7.4091861 19.894063,7.2905585 19.853044,7.1771799 19.723484,6.8189166 19.550296,6.629215 19.277423,6.5466316 19.091557,6.4902485 19.026214,6.3678182 19.110336,6.2331964 c 0.07462,-0.1195236 0.17089,-0.1231802 0.414125,-0.015889 0.328055,0.1449646 0.588693,0.4729461 0.727847,0.9159741 0.06366,0.2025867 0.06378,0.2184162 0.0044,0.2876831 -0.07669,0.088429 -0.210857,0.097926 -0.278831,0.019478 z M 6.8237927,7.5571323 C 6.6697015,7.4095163 6.7867112,7.1923631 6.9997579,7.2302537 7.1671373,7.2600872 7.2506154,7.1616016 7.3772821,6.7849145 7.4390829,6.6011634 7.5160255,6.4334892 7.5482736,6.4123251 7.638193,6.3531881 7.8012224,6.4062547 7.8278383,6.503544 7.8584503,6.6150276 7.6301856,7.2983855 7.5212112,7.4218998 7.3440557,7.6226939 6.9682883,7.6955464 6.8237823,7.5571023 Z M 10.387312,7.3060998 c -0.257673,-0.00789 -0.296002,-0.018582 -0.35121,-0.098954 -0.056069,-0.081744 -0.056612,-0.098841 -0.0055,-0.179421 l 0.05568,-0.089158 1.166423,-0.047131 c 1.166114,-0.047129 1.539745,-0.080283 2.411546,-0.2147196 0.828833,-0.1278459 0.975066,-0.1073699 0.921116,0.1289987 -0.02858,0.1249976 -0.117271,0.1508033 -0.912661,0.2654954 -1.081983,0.156025 -2.509627,0.2580823 -3.284662,0.2347737 z"
         id="path12" /></g></g></svg>
